<svg width="37" height="37" viewBox="0 0 37 37" fill="none" xmlns="http://www.w3.org/2000/svg">
<path opacity="0.1" d="M18.9017 0.448807C8.98143 0.448807 0.939453 8.49079 0.939453 18.4111C0.939453 28.3314 8.98143 36.3733 18.9017 36.3733C28.822 36.3733 36.864 28.3314 36.864 18.4111C36.8524 8.49557 28.8172 0.460355 18.9017 0.448807Z" fill="#4B4B35"/>
<path d="M30.0611 10.4376L19.8151 24.3419C19.5707 24.6661 19.2064 24.8785 18.8038 24.9314C18.4013 24.9843 17.9944 24.8733 17.6746 24.6233L10.358 18.7736C9.71231 18.2569 9.60777 17.3146 10.1244 16.669C10.6411 16.0234 11.5834 15.9188 12.229 16.4355L18.3302 21.3167L27.6511 8.66681C27.9568 8.20816 28.4897 7.95458 29.0384 8.00676C29.5871 8.05893 30.0627 8.40841 30.2765 8.91645C30.4902 9.42448 30.4074 10.0089 30.0611 10.4376Z" fill="#E9FF09"/>
</svg>
