<svg width="26" height="24" viewBox="0 0 26 24" fill="none" xmlns="http://www.w3.org/2000/svg">
<path fill-rule="evenodd" clip-rule="evenodd" d="M21.5281 5H4.30563C3.71115 5 3.22922 5.44772 3.22922 6V18C3.22922 18.5523 3.71115 19 4.30563 19H21.5281C22.1226 19 22.6045 18.5523 22.6045 18V6C22.6045 5.44772 22.1226 5 21.5281 5ZM4.30563 3C2.52219 3 1.07642 4.34315 1.07642 6V18C1.07642 19.6569 2.52219 21 4.30563 21H21.5281C23.3116 21 24.7573 19.6569 24.7573 18V6C24.7573 4.34315 23.3116 3 21.5281 3H4.30563Z" fill="#E9FF09"/>
<path fill-rule="evenodd" clip-rule="evenodd" d="M5.63144 7.35984C6.01202 6.93556 6.69076 6.87824 7.14746 7.2318L12.2277 11.1648C12.6269 11.4738 13.2067 11.4738 13.6059 11.1648L18.6861 7.2318C19.1428 6.87824 19.8216 6.93556 20.2021 7.35984C20.5827 7.78412 20.521 8.41468 20.0643 8.76825L14.984 12.7012C13.7865 13.6284 12.0471 13.6284 10.8494 12.7012L5.76926 8.76825C5.31257 8.41468 5.25087 7.78412 5.63144 7.35984Z" fill="#E9FF09"/>
</svg>
