<svg width="35" height="35" viewBox="0 0 35 35" fill="none" xmlns="http://www.w3.org/2000/svg">
<path id="Vector 50" d="M2.29659 29.6579L0.802872 31.1895L3.86594 34.1769L5.35966 32.6454L2.29659 29.6579ZM34.1353 2.24377C34.1206 1.06233 33.1509 0.116563 31.9694 0.131331L12.7168 0.371987C11.5354 0.386755 10.5896 1.35647 10.6044 2.5379C10.6192 3.71934 11.5889 4.66511 12.7703 4.65034L29.8837 4.43642L30.0976 21.5498C30.1124 22.7313 31.0821 23.677 32.2636 23.6623C33.445 23.6475 34.3908 22.6778 34.376 21.4964L34.1353 2.24377ZM5.35966 32.6454L33.5277 3.76423L30.4646 0.776789L2.29659 29.6579L5.35966 32.6454Z" fill="#575757"/>
</svg>
